<svg width="96" height="108" viewBox="0 0 96 108" fill="none" xmlns="http://www.w3.org/2000/svg">
<g filter="url(#filter0_d_2013_42724)">
<path d="M51.7187 11.6667C64.6229 11.6667 77.3431 17.8334 79.4609 32.0426C80.3133 37.7627 80.3336 44.7992 79.4316 50.5255C77.8502 60.5644 70.0192 68.4375 60.0351 70.0276C58.2214 70.3164 56.0538 70.3162 51.7187 70.3162C51.204 70.3162 50.7057 70.4806 50.2676 70.7523C48.3139 71.9641 46.0148 72.666 43.5517 72.666C31.9017 72.6657 25.6011 60.6526 24.0058 50.5255C23.1039 44.8 23.1241 37.7627 23.9765 32.0426C26.0943 17.8334 38.8145 11.6667 51.7187 11.6667Z" fill="white" style="fill:white;fill-opacity:1;"></path>
<path d="M51.7191 14.6667C63.8785 14.6668 74.6886 20.3754 76.4935 32.485C77.3032 37.9189 77.3202 44.6482 76.4681 50.0583C75.0875 58.8224 68.2551 65.6808 59.5638 67.0651C58.4236 67.2467 57.0839 67.2973 54.6077 67.3112L51.7191 67.3161C50.5607 67.3161 49.5211 67.6848 48.6859 68.2028C47.1901 69.1305 45.4363 69.6656 43.5521 69.6657C38.9047 69.6656 35.2253 67.3152 32.4007 63.5827C29.5368 59.7983 27.7098 54.7604 26.9691 50.0583C26.117 44.649 26.134 37.9189 26.9437 32.485C28.7485 20.3753 39.5595 14.6667 51.7191 14.6667Z" stroke="black" style="stroke:black;stroke-opacity:1;" stroke-width="6"></path>
</g>
<path d="M46.3685 38.6239C46.1577 36.1133 47.9412 33.874 50.4353 33.5177C53.4737 33.0837 56.118 35.6376 55.8446 38.6552C55.5461 41.9496 55.5919 48.0035 50.9035 48.0424C47.0534 48.0743 46.6604 42.102 46.3685 38.6239Z" fill="black" style="fill:black;fill-opacity:1;"></path>
<path d="M58.72 38.2135C58.72 35.6257 60.9169 33.4927 63.4841 33.5286C65.9945 33.5638 68.0888 35.6083 68.0888 38.0999C68.0888 42.0002 67.1521 47.7062 62.8034 47.7062C59.6211 47.7062 58.72 43.1669 58.72 38.2135Z" fill="black" style="fill:black;fill-opacity:1;"></path>
<defs>
<filter id="filter0_d_2013_42724" x="-1.90735e-05" y="2.09808e-05" width="103.437" height="107.666" filterUnits="userSpaceOnUse" color-interpolation-filters="sRGB">
<feFlood flood-opacity="0" result="BackgroundImageFix"></feFlood>
<feColorMatrix in="SourceAlpha" type="matrix" values="0 0 0 0 0 0 0 0 0 0 0 0 0 0 0 0 0 0 127 0" result="hardAlpha"></feColorMatrix>
<feOffset dy="11.6667"></feOffset>
<feGaussianBlur stdDeviation="11.6667"></feGaussianBlur>
<feComposite in2="hardAlpha" operator="out"></feComposite>
<feColorMatrix type="matrix" values="0 0 0 0 0 0 0 0 0 0 0 0 0 0 0 0 0 0 0.1 0"></feColorMatrix>
<feBlend mode="normal" in2="BackgroundImageFix" result="effect1_dropShadow_2013_42724"></feBlend>
<feBlend mode="normal" in="SourceGraphic" in2="effect1_dropShadow_2013_42724" result="shape"></feBlend>
</filter>
</defs>
</svg>