<svg width="44" height="44" viewBox="4 0 36 36" fill="none" xmlns="http://www.w3.org/2000/svg">
<rect x="4" y="0" width="36" height="36" rx="9" fill="#FFFA63"/>
<g clip-path="url(#body-clip)">
<path d="M21.335 5.02211C21.7776 4.99263 22.2224 4.99263 22.665 5.02211C22.7478 5.02763 22.8307 5.03469 22.9961 5.04848C24.7135 5.19159 25.5727 5.26302 26.2979 5.43422C30.2768 6.37388 33.2837 9.64094 33.8896 13.6842C34.0001 14.4212 34 15.283 34 17.0065V17.9655C34 19.8228 34 20.7518 33.877 21.5289C33.1992 25.8078 29.8433 29.1637 25.5645 29.8414C24.7871 29.9646 23.858 29.9655 22 29.9655C21.7795 29.9655 21.566 30.0353 21.3782 30.1509C20.5409 30.6667 19.5556 30.9655 18.5 30.9655C17.0353 30.9655 15.472 30.3928 14.2457 29.4593C13.7402 29.0745 13.4875 28.8821 12.8076 28.0959C12.3597 27.5779 11.6005 26.4061 11.3107 25.7856C10.871 24.8438 10.6683 23.977 10.2629 22.2433C10.208 22.0084 10.1612 21.7701 10.123 21.5289C10 20.7518 10 19.8228 10 17.9655V17.0065C10 15.283 9.99991 14.4212 10.1104 13.6842C10.7163 9.64094 13.7232 6.37388 17.7021 5.43422C18.4273 5.26302 19.2865 5.19159 21.0039 5.04848C21.1693 5.03469 21.2522 5.02763 21.335 5.02211Z" fill="white" stroke="black" stroke-width="6"/>
</g>
<g transform="translate(19.70, 14.34)">
<path d="M0.00724094 2.20931C-0.0830734 1.13337 0.681293 0.173663 1.75016 0.0209673C3.05233 -0.165056 4.18712 0.912704 4.06844 2.22272L3.83934 4.75139C3.8136 5.03551 3.68902 5.3016 3.4873 5.50333L3.1882 5.80242C2.65748 6.33314 1.8467 6.46472 1.17539 6.12906L1.03614 6.05944C0.578653 5.83069 0.273399 5.38011 0.230616 4.87042L0.00724094 2.20931Z" fill="black"/>
</g>
<g transform="translate(25.00, 14.37)">
<path d="M0 2.00801C0 1.00901 0.734581 0.16203 1.72354 0.02075C3.0724 -0.171943 4.21725 1.00648 3.98567 2.3492L3.56208 4.80522C3.52169 5.03942 3.40978 5.25537 3.24173 5.42342L3.10482 5.56034C2.2916 6.37355 0.929827 6.20173 0.344089 5.21201L0.192939 4.95662C0.0666364 4.7432 0 4.49977 0 4.25178V2.00801Z" fill="black"/>
</g>
<defs>
<clipPath id="body-clip">
<path d="M21.335 5.02211C21.7776 4.99263 22.2224 4.99263 22.665 5.02211C22.7478 5.02763 22.8307 5.03469 22.9961 5.04848C24.7135 5.19159 25.5727 5.26302 26.2979 5.43422C30.2768 6.37388 33.2837 9.64094 33.8896 13.6842C34.0001 14.4212 34 15.283 34 17.0065V17.9655C34 19.8228 34 20.7518 33.877 21.5289C33.1992 25.8078 29.8433 29.1637 25.5645 29.8414C24.7871 29.9646 23.858 29.9655 22 29.9655C21.7795 29.9655 21.566 30.0353 21.3782 30.1509C20.5409 30.6667 19.5556 30.9655 18.5 30.9655C17.0353 30.9655 15.472 30.3928 14.2457 29.4593C13.7402 29.0745 13.4875 28.8821 12.8076 28.0959C12.3597 27.5779 11.6005 26.4061 11.3107 25.7856C10.871 24.8438 10.6683 23.977 10.2629 22.2433C10.208 22.0084 10.1612 21.7701 10.123 21.5289C10 20.7518 10 19.8228 10 17.9655V17.0065C10 15.283 9.99991 14.4212 10.1104 13.6842C10.7163 9.64094 13.7232 6.37388 17.7021 5.43422C18.4273 5.26302 19.2865 5.19159 21.0039 5.04848C21.1693 5.03469 21.2522 5.02763 21.335 5.02211Z"/>
</clipPath>
</defs>
</svg>
