<svg xmlns="http://www.w3.org/2000/svg" width="56.771" height="60.999" viewBox="0 0 56.771 60.999" fill="none">
  <path d="M 28.385 0 C 41.29 0 54.01 6.167 56.128 20.376 C 56.98 26.096 57 33.132 56.098 38.859 C 54.517 48.898 46.686 56.771 36.702 58.361 C 34.888 58.65 32.72 58.65 28.385 58.65 C 27.871 58.65 27.372 58.814 26.934 59.086 C 24.981 60.297 22.681 60.999 20.218 60.999 C 8.568 60.999 2.268 48.986 0.673 38.859 C -0.229 33.133 -0.209 26.096 0.643 20.376 C 2.761 6.167 15.481 0 28.385 0 Z" fill="#ffffff" fill-rule="nonzero"></path>
  <path d="M 56.128 20.376 L 62.062 19.492 L 62.062 19.491 L 56.128 20.376 Z M 56.098 38.859 L 62.025 39.792 L 62.025 39.792 L 56.098 38.859 Z M 36.702 58.361 L 37.645 64.286 L 37.645 64.286 L 36.702 58.361 Z M 20.218 60.999 L 20.218 66.999 L 20.218 66.999 L 20.218 60.999 Z M 0.673 38.859 L -5.254 39.792 L -5.254 39.792 L 0.673 38.859 Z M 0.643 20.376 L -5.291 19.491 L -5.291 19.492 L 0.643 20.376 Z M 26.934 59.086 L 30.097 64.184 L 26.934 59.086 Z M 56.098 38.859 L 50.171 37.925 C 48.992 45.415 43.157 51.257 35.758 52.436 L 36.702 58.361 L 37.645 64.286 C 50.215 62.284 60.042 52.381 62.025 39.792 L 56.098 38.859 Z M 36.702 58.361 L 35.758 52.436 C 34.532 52.631 32.951 52.65 28.385 52.65 L 28.385 58.65 L 28.385 64.65 C 32.49 64.65 35.245 64.668 37.645 64.286 L 36.702 58.361 Z M 26.934 59.086 L 23.772 53.987 C 22.734 54.631 21.524 54.999 20.218 54.999 L 20.218 60.999 L 20.218 66.999 C 23.838 66.999 27.228 65.964 30.097 64.184 L 26.934 59.086 Z M 28.385 58.65 L 28.385 52.65 C 26.583 52.65 25.004 53.222 23.772 53.987 L 26.934 59.086 L 30.097 64.184 C 29.741 64.405 29.158 64.65 28.385 64.65 L 28.385 58.65 Z M 0.643 20.376 L 6.578 21.26 C 8.07 11.25 16.97 6 28.385 6 L 28.385 0 L 28.385 -6 C 13.992 -6 -2.548 1.083 -5.291 19.491 L 0.643 20.376 Z M 28.385 0 L 28.385 6 C 39.8 6 48.701 11.25 50.193 21.26 L 56.128 20.376 L 62.062 19.491 C 59.318 1.083 42.779 -6 28.385 -6 L 28.385 0 Z M 56.128 20.376 L 50.193 21.26 C 50.96 26.408 50.974 32.831 50.171 37.925 L 56.098 38.859 L 62.025 39.792 C 63.027 33.434 63 25.784 62.062 19.492 L 56.128 20.376 Z M 0.673 38.859 L 6.599 37.925 C 5.797 32.832 5.811 26.408 6.578 21.26 L 0.643 20.376 L -5.291 19.492 C -6.229 25.784 -6.256 33.435 -5.254 39.792 L 0.673 38.859 Z M 20.218 60.999 L 20.219 54.999 C 16.749 54.999 13.878 53.302 11.459 50.106 C 8.962 46.806 7.283 42.266 6.599 37.925 L 0.673 38.859 L -5.254 39.792 C -4.343 45.579 -2.074 52.108 1.891 57.347 C 5.934 62.69 12.038 66.999 20.218 66.999 L 20.218 60.999 Z" fill="#000000" fill-rule="nonzero"></path>
  <g transform="translate(23.018, 21.803)">
    <path d="M 0.017 5.155 C -0.194 2.644 1.59 0.405 4.084 0.049 C 7.122 -0.385 9.766 2.169 9.493 5.186 C 9.195 8.481 9.24 14.535 4.552 14.573 C 0.702 14.605 0.309 8.633 0.017 5.155 Z" fill="#000000" fill-rule="nonzero"></path>
    <path d="M 12.368 4.744 C 12.368 2.156 14.565 0.024 17.132 0.059 C 19.642 0.095 21.737 2.139 21.737 4.631 C 21.737 8.531 20.8 14.237 16.451 14.237 C 13.269 14.237 12.368 9.698 12.368 4.744 Z" fill="#000000" fill-rule="nonzero"></path>
  </g>
</svg>