<svg xmlns="http://www.w3.org/2000/svg" width="33.971" height="35" viewBox="0 0 33.971 35" fill="none">
  <path d="M 20.91 15.475 C 23.847 15.475 25.729 17.553 25.729 21.14 C 25.729 24.697 23.869 26.864 20.91 26.864 C 17.951 26.864 16.082 24.711 16.082 21.146 C 16.082 17.56 17.973 15.475 20.91 15.475 Z M 20.91 17.911 C 19.939 17.911 19.311 18.882 19.311 21.146 C 19.311 23.403 19.939 24.428 20.91 24.428 C 21.881 24.427 22.502 23.403 22.502 21.146 C 22.502 18.883 21.881 17.911 20.91 17.911 Z" fill="#ffffff" fill-rule="evenodd"></path>
  <path d="M 12.338 15.592 C 13.481 15.592 14.154 16.28 14.154 17.363 L 14.154 25.188 C 14.154 26.137 13.518 26.749 12.569 26.749 C 11.62 26.749 10.985 26.136 10.985 25.188 L 10.985 18.491 L 10.926 18.491 L 9.782 19.283 C 9.513 19.47 9.341 19.53 9.042 19.53 C 8.452 19.53 7.996 19.089 7.996 18.462 C 7.996 18.021 8.175 17.662 8.594 17.378 L 10.552 16.07 C 11.179 15.652 11.725 15.592 12.338 15.592 Z" fill="#ffffff" fill-rule="nonzero"></path>
  <path d="M 16.985 0 C 18.712 0 20.398 0.02 21.993 0.052 C 25.799 0.129 27.702 0.167 29.41 1.056 C 30.816 1.787 32.191 3.163 32.921 4.569 C 33.808 6.279 33.844 8.178 33.917 11.977 C 33.95 13.69 33.971 15.543 33.971 17.5 C 33.971 19.501 33.949 21.395 33.915 23.142 C 33.842 26.874 33.805 28.741 32.916 30.451 C 32.19 31.847 30.795 33.24 29.398 33.964 C 27.687 34.851 25.828 34.885 22.11 34.953 C 20.525 34.982 18.809 35 16.985 35 C 15.162 35 13.446 34.982 11.86 34.953 C 8.143 34.885 6.283 34.851 4.572 33.964 C 3.176 33.24 1.78 31.847 1.055 30.451 C 0.166 28.741 0.129 26.874 0.056 23.142 C 0.021 21.395 0 19.501 0 17.5 C 0 15.543 0.021 13.69 0.054 11.977 C 0.127 8.178 0.163 6.279 1.05 4.569 C 1.779 3.163 3.154 1.787 4.56 1.056 C 6.268 0.167 8.172 0.129 11.978 0.052 C 13.572 0.02 15.259 0 16.985 0 Z M 9.263 11.323 C 5.852 11.323 3.086 14.089 3.086 17.5 L 3.086 25.735 C 3.086 29.146 5.852 31.911 9.263 31.911 L 24.703 31.911 C 28.114 31.911 30.88 29.146 30.88 25.735 L 30.88 17.5 C 30.88 14.089 28.114 11.323 24.703 11.323 L 9.263 11.323 Z" fill="#ffffff" fill-rule="evenodd"></path>
</svg>