<svg xmlns="http://www.w3.org/2000/svg" width="33.911" height="33.605" viewBox="0 0 33.911 33.605" fill="none">
  <path d="M 21.54 19.645 C 22.46 19.645 23.205 20.391 23.205 21.31 L 23.205 23.192 C 23.205 24.111 22.46 24.857 21.54 24.857 C 20.621 24.857 19.875 24.111 19.875 23.192 L 19.875 21.31 C 19.875 20.391 20.621 19.645 21.54 19.645 Z" fill="#ffffff" fill-rule="nonzero"></path>
  <path d="M 10.751 15.493 C 11.671 15.493 12.416 16.238 12.416 17.158 L 12.416 19.04 C 12.416 19.959 11.67 20.705 10.751 20.705 C 9.832 20.705 9.086 19.959 9.086 19.04 L 9.086 17.158 C 9.086 16.238 9.831 15.493 10.751 15.493 Z" fill="#ffffff" fill-rule="nonzero"></path>
  <path d="M 21.54 11.49 C 22.46 11.49 23.205 12.235 23.205 13.155 L 23.205 15.037 C 23.205 15.956 22.46 16.702 21.54 16.702 C 20.621 16.702 19.875 15.956 19.875 15.037 L 19.875 13.155 C 19.875 12.235 20.621 11.49 21.54 11.49 Z" fill="#ffffff" fill-rule="nonzero"></path>
  <path d="M 10.751 7.338 C 11.67 7.338 12.416 8.083 12.416 9.003 L 12.416 10.884 C 12.416 11.804 11.67 12.549 10.751 12.549 C 9.832 12.549 9.086 11.804 9.086 10.884 L 9.086 9.003 C 9.086 8.083 9.832 7.338 10.751 7.338 Z" fill="#ffffff" fill-rule="nonzero"></path>
  <path d="M 10.8 0.002 C 11.914 -0.031 12.936 0.446 14.053 0.924 L 20.689 3.769 C 21.501 4.117 21.7 4.194 21.895 4.234 C 22.089 4.274 22.302 4.281 23.185 4.281 L 26.246 4.281 C 27.613 4.281 28.806 4.278 29.76 4.406 C 30.761 4.541 31.745 4.847 32.545 5.647 C 33.345 6.447 33.652 7.431 33.787 8.432 C 33.915 9.386 33.911 10.579 33.911 11.946 L 33.911 25.94 C 33.911 27.307 33.915 28.5 33.787 29.454 C 33.652 30.455 33.345 31.439 32.545 32.239 C 31.745 33.039 30.761 33.346 29.76 33.481 C 28.806 33.609 27.613 33.605 26.246 33.605 L 23.667 33.605 C 22.696 33.605 21.914 33.618 21.151 33.416 C 20.389 33.213 19.716 32.814 18.872 32.332 L 12.393 28.63 C 11.566 28.157 11.418 28.088 11.297 28.056 C 11.046 27.991 10.782 28.001 10.537 28.083 C 10.419 28.122 10.275 28.202 9.482 28.73 C 8.542 29.357 7.759 29.879 7.113 30.245 C 6.481 30.602 5.777 30.932 5 30.988 C 3.205 31.117 1.496 30.202 0.607 28.637 C 0.223 27.96 0.107 27.191 0.054 26.466 C -0.001 25.726 0 24.786 0 23.655 L 0 9.654 C 0 8.786 -0.002 8.01 0.064 7.363 C 0.135 6.678 0.294 5.999 0.696 5.347 C 1.099 4.696 1.636 4.251 2.217 3.881 C 2.765 3.532 3.461 3.187 4.237 2.798 L 7.605 1.114 C 8.692 0.571 9.685 0.034 10.8 0.002 Z M 12.092 3.713 C 11.789 4.125 11.302 4.395 10.751 4.395 C 10.274 4.395 9.846 4.193 9.542 3.872 C 9.408 3.937 9.26 4.01 9.095 4.092 L 5.727 5.777 C 4.889 6.196 4.374 6.456 4.004 6.691 C 3.667 6.906 3.575 7.025 3.529 7.098 C 3.484 7.172 3.418 7.308 3.377 7.706 C 3.332 8.142 3.33 8.718 3.33 9.654 L 3.33 23.655 C 3.33 24.838 3.331 25.633 3.374 26.222 C 3.395 26.508 3.423 26.7 3.453 26.831 C 3.48 26.949 3.503 26.992 3.504 26.994 C 3.758 27.441 4.247 27.704 4.761 27.667 C 4.761 27.667 4.809 27.662 4.925 27.618 C 5.05 27.57 5.225 27.487 5.475 27.346 C 5.989 27.056 6.651 26.615 7.636 25.959 C 8.143 25.62 8.611 25.299 9.105 25.075 C 9.22 24.268 9.912 23.648 10.751 23.648 C 11.528 23.648 12.179 24.181 12.362 24.901 C 12.928 25.087 13.461 25.404 14.045 25.738 L 19.918 29.094 C 20.087 28.353 20.748 27.8 21.54 27.8 C 22.46 27.8 23.205 28.546 23.205 29.465 L 23.205 30.273 C 23.341 30.274 23.494 30.275 23.667 30.275 L 26.246 30.275 C 27.707 30.275 28.636 30.272 29.316 30.18 C 29.948 30.095 30.112 29.963 30.19 29.884 C 30.269 29.806 30.401 29.642 30.486 29.01 C 30.578 28.33 30.581 27.401 30.581 25.94 L 30.581 11.946 C 30.581 10.485 30.578 9.557 30.486 8.877 C 30.401 8.245 30.269 8.081 30.19 8.003 C 30.112 7.924 29.949 7.792 29.316 7.707 C 28.636 7.615 27.707 7.611 26.246 7.611 L 23.035 7.611 C 22.765 8.165 22.198 8.547 21.54 8.547 C 20.675 8.547 19.965 7.888 19.883 7.045 C 19.722 6.977 19.554 6.905 19.378 6.83 L 12.741 3.986 C 12.489 3.878 12.275 3.788 12.092 3.713 Z" fill="#ffffff" fill-rule="evenodd"></path>
</svg>