<svg xmlns="http://www.w3.org/2000/svg" width="35.330" height="35.330" viewBox="0 0 35.330 35.330" fill="none">
  <path d="M 0 8.957 C 0 7.688 0.216 6.475 0.664 5.335 L 0.668 5.327 L 0.671 5.319 C 1.134 4.176 1.807 3.17 2.687 2.317 C 3.288 1.73 3.964 1.221 4.708 0.79 C 5.532 0.308 6.428 0 7.373 0 C 8.254 0 9.041 0.325 9.684 0.883 L 9.685 0.882 C 9.687 0.884 9.69 0.887 9.692 0.89 C 9.696 0.893 9.7 0.895 9.703 0.897 L 9.702 0.898 C 10.209 1.334 10.686 1.89 11.139 2.525 L 14.018 6.538 C 14.406 7.071 14.733 7.633 14.927 8.215 C 15.096 8.724 15.195 9.252 15.195 9.79 C 15.195 10.256 15.126 10.72 14.97 11.169 L 14.968 11.168 C 14.84 11.554 14.643 11.963 14.418 12.366 L 14.411 12.378 L 14.405 12.389 L 12.87 15.039 C 13.482 16.188 14.513 17.531 16.039 19.068 L 16.615 19.629 C 17.194 20.175 17.783 20.681 18.381 21.146 C 19.166 21.758 19.799 22.155 20.289 22.383 C 20.337 22.403 20.383 22.418 20.425 22.435 L 23.115 20.966 C 23.592 20.704 24.071 20.474 24.512 20.346 C 24.923 20.226 25.347 20.162 25.777 20.162 C 26.284 20.162 26.78 20.253 27.254 20.433 C 27.636 20.574 28.044 20.802 28.454 21.069 L 28.864 21.348 L 28.878 21.357 L 33.045 24.347 L 33.279 24.517 C 33.82 24.92 34.307 25.365 34.657 25.859 C 35.069 26.441 35.33 27.126 35.33 27.888 C 35.33 28.67 35.108 29.429 34.767 30.14 L 34.761 30.151 C 34.405 30.878 33.858 31.63 33.188 32.396 L 33.168 32.42 C 32.348 33.324 31.346 34.024 30.191 34.531 L 30.192 34.532 C 29.003 35.072 27.717 35.33 26.359 35.33 C 24.467 35.33 22.522 34.869 20.539 34.011 C 18.591 33.178 16.654 32.053 14.729 30.648 L 14.725 30.646 C 12.824 29.251 11.003 27.687 9.261 25.955 L 9.257 25.951 C 7.525 24.218 5.97 22.411 4.597 20.528 L 4.594 20.523 C 3.21 18.616 2.101 16.692 1.28 14.751 C 0.446 12.779 0 10.842 0 8.957 Z M 3.33 8.957 C 3.33 10.313 3.65 11.807 4.347 13.453 C 5.056 15.13 6.031 16.834 7.286 18.565 C 8.552 20.3 9.992 21.976 11.608 23.594 L 12.223 24.193 C 13.662 25.574 15.151 26.828 16.69 27.958 L 17.348 28.424 C 18.658 29.33 19.949 30.077 21.221 30.669 L 21.855 30.952 L 21.863 30.955 C 23.519 31.672 25.012 32 26.359 32 C 27.286 32 28.098 31.825 28.817 31.499 L 28.827 31.495 L 28.838 31.49 C 29.602 31.156 30.21 30.719 30.693 30.188 C 31.253 29.547 31.589 29.053 31.766 28.696 C 31.908 28.398 31.969 28.177 31.99 28.021 L 32 27.893 C 32 27.893 32 27.89 31.999 27.888 C 31.996 27.878 31.982 27.843 31.94 27.785 C 31.853 27.662 31.621 27.417 31.124 27.066 L 31.113 27.06 L 26.95 24.072 L 26.62 23.849 C 26.332 23.662 26.165 23.58 26.098 23.555 L 26.088 23.552 L 26.078 23.548 C 25.981 23.511 25.885 23.492 25.777 23.492 C 25.676 23.492 25.566 23.507 25.445 23.542 C 25.355 23.568 25.126 23.661 24.717 23.886 L 24.712 23.888 L 21.999 25.37 L 21.985 25.378 C 21.79 25.482 21.56 25.594 21.328 25.671 L 21.247 25.698 L 21.163 25.717 C 20.935 25.767 20.708 25.79 20.485 25.79 C 20.212 25.79 19.93 25.761 19.649 25.69 L 19.587 25.675 L 19.526 25.654 C 19.342 25.593 19.153 25.52 18.964 25.438 L 18.927 25.423 C 18.112 25.05 17.243 24.483 16.333 23.773 C 15.422 23.063 14.539 22.279 13.684 21.423 L 13.68 21.419 C 11.96 19.687 10.651 18.023 9.834 16.426 L 9.831 16.419 L 9.827 16.411 C 9.747 16.251 9.678 16.085 9.618 15.92 L 9.595 15.854 L 9.577 15.789 C 9.519 15.577 9.487 15.365 9.475 15.157 L 9.469 14.951 L 9.481 14.697 C 9.508 14.444 9.573 14.196 9.679 13.959 L 9.694 13.925 L 9.711 13.891 C 9.776 13.76 9.846 13.626 9.921 13.488 L 11.515 10.735 C 11.699 10.404 11.781 10.207 11.81 10.118 L 11.816 10.097 L 11.824 10.075 C 11.846 10.014 11.865 9.923 11.865 9.79 C 11.865 9.662 11.842 9.49 11.768 9.268 C 11.719 9.121 11.594 8.866 11.32 8.492 L 11.316 8.485 L 11.312 8.479 L 8.433 4.467 L 8.429 4.462 C 8.067 3.953 7.763 3.618 7.523 3.414 L 7.514 3.406 L 7.505 3.398 C 7.452 3.352 7.421 3.339 7.414 3.336 C 7.409 3.334 7.399 3.33 7.373 3.33 C 7.167 3.33 6.846 3.397 6.385 3.667 L 6.377 3.672 C 5.859 3.972 5.405 4.316 5.01 4.703 L 5.004 4.709 C 4.463 5.233 4.05 5.847 3.758 6.568 C 3.477 7.288 3.33 8.08 3.33 8.957 Z" fill="#ffffff" fill-rule="nonzero"></path>
</svg>