<svg xmlns="http://www.w3.org/2000/svg" width="34.622" height="34.623" viewBox="0 0 34.622 34.623" fill="none">
  <path d="M 24.215 28.162 C 23.774 27.596 23.553 27.312 23.492 27.038 C 23.434 26.775 23.45 26.564 23.548 26.313 C 23.65 26.051 23.944 25.773 24.533 25.219 C 24.65 25.108 24.766 24.995 24.881 24.881 C 24.995 24.766 25.107 24.651 25.217 24.534 C 25.772 23.946 26.049 23.652 26.311 23.55 C 26.562 23.453 26.774 23.436 27.036 23.495 C 27.311 23.556 27.594 23.776 28.161 24.217 L 33.226 28.156 C 34.942 29.491 35.1 32.028 33.563 33.565 C 32.026 35.102 29.49 34.944 28.155 33.228 L 24.215 28.162 Z" fill="#ffffff" fill-rule="nonzero"></path>
  <path d="M 3.896 3.896 C 9.091 -1.299 17.513 -1.299 22.708 3.896 C 27.902 9.091 27.902 17.513 22.708 22.707 C 17.513 27.902 9.091 27.902 3.896 22.707 C -1.299 17.513 -1.299 9.091 3.896 3.896 Z M 6.548 6.548 C 2.817 10.278 2.817 16.326 6.548 20.056 C 10.278 23.786 16.326 23.786 20.056 20.056 C 23.786 16.326 23.786 10.278 20.056 6.548 C 16.326 2.817 10.278 2.818 6.548 6.548 Z" fill="#ffffff" fill-rule="evenodd"></path>
</svg>